<?xml version="1.0" encoding="UTF-8"?>
<!DOCTYPE svg PUBLIC "-//W3C//DTD SVG 1.1//EN" "http://www.w3.org/Graphics/SVG/1.1/DTD/svg11.dtd">
<svg xmlns="http://www.w3.org/2000/svg" version="1.1" width="83px" height="85px" style="shape-rendering:geometricPrecision; text-rendering:geometricPrecision; image-rendering:optimizeQuality; fill-rule:evenodd; clip-rule:evenodd" xmlns:xlink="http://www.w3.org/1999/xlink">
<g><path style="opacity:0.796" fill="#b8b8b8" d="M 68.5,24.5 C 68.1034,25.525 67.4368,25.6917 66.5,25C 55.9166,12.4756 42.9166,9.1423 27.5,15C 21.7908,17.5406 17.1241,21.3739 13.5,26.5C 12.8933,26.3764 12.56,26.0431 12.5,25.5C 20.6821,12.7471 32.3488,7.58039 47.5,10C 56.6193,11.8832 63.6193,16.7165 68.5,24.5 Z"/></g>
<g><path style="opacity:0.995" fill="#fcfcfc" d="M 68.5,24.5 C 69.3382,24.8417 69.6716,25.5084 69.5,26.5C 68.6236,26.3691 67.9569,26.7025 67.5,27.5C 68.4757,30.4987 70.1423,32.832 72.5,34.5C 73.3382,34.8417 73.6716,35.5084 73.5,36.5C 70.9781,38.0018 70.9781,39.3351 73.5,40.5C 74.8333,42.1667 74.8333,43.8333 73.5,45.5C 73.1034,44.475 72.4368,44.3083 71.5,45C 66.1021,50.7346 60.4354,56.068 54.5,61C 48.1142,61.0047 41.7808,61.1714 35.5,61.5C 35.5,63.5 35.5,65.5 35.5,67.5C 37.5695,67.4486 39.4029,68.1153 41,69.5C 45.3027,67.9922 49.8027,66.9922 54.5,66.5C 58.8208,62.5136 63.1541,58.5136 67.5,54.5C 68.8195,53.0582 70.4862,52.3915 72.5,52.5C 72.7373,53.791 72.404,54.791 71.5,55.5C 70.8106,54.2264 69.9772,54.2264 69,55.5C 68.5,56.5 68,57.5 67.5,58.5C 67.9569,59.2975 68.6236,59.6309 69.5,59.5C 69.6716,60.4916 69.3382,61.1583 68.5,61.5C 68.1034,60.475 67.4368,60.3083 66.5,61C 64.2941,63.0367 62.2941,65.2034 60.5,67.5C 44.4556,77.4244 29.6223,75.7577 16,62.5C 15.5172,61.552 15.3505,60.552 15.5,59.5C 14.209,59.2627 13.209,59.596 12.5,60.5C 7.77438,53.0213 6.44105,45.0213 8.5,36.5C 9.37644,36.6309 10.0431,36.2975 10.5,35.5C 11.3052,33.0846 12.3052,30.7513 13.5,28.5C 13.0431,27.7025 12.3764,27.3691 11.5,27.5C 11.3284,26.5084 11.6618,25.8417 12.5,25.5C 12.56,26.0431 12.8933,26.3764 13.5,26.5C 17.1241,21.3739 21.7908,17.5406 27.5,15C 42.9166,9.1423 55.9166,12.4756 66.5,25C 67.4368,25.6917 68.1034,25.525 68.5,24.5 Z M 50.5,38.5 C 50.3284,39.4916 50.6618,40.1583 51.5,40.5C 51.5,42.1667 51.5,43.8333 51.5,45.5C 50.6618,45.8417 50.3284,46.5084 50.5,47.5C 43.0381,55.6906 36.3715,55.0239 30.5,45.5C 30.5,44.1667 30.5,42.8333 30.5,41.5C 32.6706,34.5786 37.3373,32.0786 44.5,34C 47.2542,34.5985 49.2542,36.0985 50.5,38.5 Z M 39.5,62.5 C 42.8606,63.2032 43.1939,64.5365 40.5,66.5C 39.5713,65.3112 39.238,63.9778 39.5,62.5 Z"/></g>
<g><path style="opacity:0.343" fill="#bfbfbf" d="M 69.5,26.5 C 71.5848,28.6845 72.5848,31.3511 72.5,34.5C 70.1423,32.832 68.4757,30.4987 67.5,27.5C 67.9569,26.7025 68.6236,26.3691 69.5,26.5 Z"/></g>
<g><path style="opacity:0.98" fill="#c5c4c4" d="M 11.5,27.5 C 12.3764,27.3691 13.0431,27.7025 13.5,28.5C 12.3052,30.7513 11.3052,33.0846 10.5,35.5C 10.0431,36.2975 9.37644,36.6309 8.5,36.5C 8.52751,33.0836 9.52751,30.0836 11.5,27.5 Z"/></g>
<g><path style="opacity:0.137" fill="#c5c4c5" d="M 50.5,38.5 C 49.2542,36.0985 47.2542,34.5985 44.5,34C 37.3373,32.0786 32.6706,34.5786 30.5,41.5C 28.3969,40.02 28.3969,38.8534 30.5,38C 29.5494,37.2825 29.3828,36.4491 30,35.5C 38.2068,27.5879 45.7068,28.2546 52.5,37.5C 52.0431,38.2975 51.3764,38.6309 50.5,38.5 Z"/></g>
<g><path style="opacity:0.659" fill="#b4b3b4" d="M 46.5,40.5 C 43.1828,36.9073 39.5161,36.5739 35.5,39.5C 37.8128,36.1172 40.8128,35.2838 44.5,37C 45.8228,37.8159 46.4894,38.9826 46.5,40.5 Z"/></g>
<g><path style="opacity:0.153" fill="#939393" d="M 73.5,36.5 C 73.5,37.8333 73.5,39.1667 73.5,40.5C 70.9781,39.3351 70.9781,38.0018 73.5,36.5 Z"/></g>
<g><path style="opacity:0.999" fill="#333333" d="M 46.5,40.5 C 47.8333,42.1667 47.8333,43.8333 46.5,45.5C 39.1604,50.5132 35.4937,48.5132 35.5,39.5C 39.5161,36.5739 43.1828,36.9073 46.5,40.5 Z"/></g>
<g><path style="opacity:0.153" fill="#a3a2a2" d="M 51.5,45.5 C 51.5,43.8333 51.5,42.1667 51.5,40.5C 51.56,39.9569 51.8933,39.6236 52.5,39.5C 53.8333,41.8333 53.8333,44.1667 52.5,46.5C 51.8933,46.3764 51.56,46.0431 51.5,45.5 Z"/></g>
<g><path style="opacity:0.498" fill="#bababa" d="M 35.5,39.5 C 35.4937,48.5132 39.1604,50.5132 46.5,45.5C 46.4257,47.4109 45.4257,48.5776 43.5,49C 35.8404,49.849 33.1738,46.6823 35.5,39.5 Z"/></g>
<g><path style="opacity:0.373" fill="#bbbaba" d="M 30.5,45.5 C 36.3715,55.0239 43.0381,55.6906 50.5,47.5C 51.3764,47.3691 52.0431,47.7025 52.5,48.5C 45.5533,57.7996 38.0533,58.4663 30,50.5C 29.3623,49.3914 28.8623,48.2247 28.5,47C 28.8361,45.9701 29.5028,45.4701 30.5,45.5 Z"/></g>
<g><path style="opacity:0.82" fill="#868586" d="M 72.5,51.5 C 72.5,51.8333 72.5,52.1667 72.5,52.5C 70.4862,52.3915 68.8195,53.0582 67.5,54.5C 68.0981,51.1789 69.7647,50.1789 72.5,51.5 Z"/></g>
<g><path style="opacity:0.537" fill="#bebebe" d="M 71.5,55.5 C 71.3404,57.153 70.6737,58.4863 69.5,59.5C 68.6236,59.6309 67.9569,59.2975 67.5,58.5C 68,57.5 68.5,56.5 69,55.5C 69.9772,54.2264 70.8106,54.2264 71.5,55.5 Z"/></g>
<g><path style="opacity:0.945" fill="#bababa" d="M 73.5,45.5 C 73.4829,47.5061 73.1496,49.5061 72.5,51.5C 69.7647,50.1789 68.0981,51.1789 67.5,54.5C 63.1541,58.5136 58.8208,62.5136 54.5,66.5C 49.8027,66.9922 45.3027,67.9922 41,69.5C 39.4029,68.1153 37.5695,67.4486 35.5,67.5C 35.5,65.5 35.5,63.5 35.5,61.5C 41.7808,61.1714 48.1142,61.0047 54.5,61C 60.4354,56.068 66.1021,50.7346 71.5,45C 72.4368,44.3083 73.1034,44.475 73.5,45.5 Z M 39.5,62.5 C 39.238,63.9778 39.5713,65.3112 40.5,66.5C 43.1939,64.5365 42.8606,63.2032 39.5,62.5 Z"/></g>
<g><path style="opacity:0.435" fill="#919191" d="M 68.5,61.5 C 68.5,62.1667 68.1667,62.5 67.5,62.5C 65.2034,64.2941 63.0367,66.2941 61,68.5C 60.6012,68.2716 60.4346,67.9382 60.5,67.5C 62.2941,65.2034 64.2941,63.0367 66.5,61C 67.4368,60.3083 68.1034,60.475 68.5,61.5 Z"/></g>
<g><path style="opacity:0.306" fill="#bababa" d="M 60.5,67.5 C 60.4346,67.9382 60.6012,68.2716 61,68.5C 63.0367,66.2941 65.2034,64.2941 67.5,62.5C 65.7371,66.0988 63.0705,68.9322 59.5,71C 40.6066,81.1904 24.9399,77.6904 12.5,60.5C 13.209,59.596 14.209,59.2627 15.5,59.5C 15.3505,60.552 15.5172,61.552 16,62.5C 29.6223,75.7577 44.4556,77.4244 60.5,67.5 Z M 39.5,62.5 C 39.238,63.9778 39.5713,65.3112 40.5,66.5C 43.1939,64.5365 42.8606,63.2032 39.5,62.5 Z"/></g>
<g><path style="opacity:0.213" fill="#8b8b8b" d="M 43.5,62.5 C 46.8499,62.335 50.1832,62.5017 53.5,63C 50.5,63.3333 47.5,63.6667 44.5,64C 56.3073,65.9204 55.974,66.7538 43.5,66.5C 43.5,65.1667 43.5,63.8333 43.5,62.5 Z"/></g>
</svg>
